<svg width="512" height="512" viewBox="0 0 512 512" fill="none" xmlns="http://www.w3.org/2000/svg">
<g filter="url(#filter0_i_2828_260)">
<rect width="512" height="512" rx="96" fill="white"/>
<rect x="109" y="127" width="295" height="258" rx="48" fill="#FC4C53"/>
<mask id="mask0_2828_260" style="mask-type:alpha" maskUnits="userSpaceOnUse" x="109" y="127" width="295" height="258">
<rect x="109" y="127" width="295" height="258" rx="48" fill="#FC4C53"/>
</mask>
<g mask="url(#mask0_2828_260)">
<g filter="url(#filter1_f_2828_260)">
<rect x="-76.1777" y="121.039" width="621" height="318" transform="rotate(-9.60525 -76.1777 121.039)" fill="#34A853"/>
</g>
<g filter="url(#filter2_f_2828_260)">
<path d="M-62.6318 200.306C190.499 206.5 234.999 171.5 425.499 17.0034L593.793 330.185L-18.5008 433.804L-62.6318 200.306Z" fill="#FFCF09"/>
</g>
<g filter="url(#filter3_f_2828_260)">
<path d="M-13.5 251.5C228 295 329.5 268.5 507 82.503L612.692 336.459L0.397817 440.079L-13.5 251.5Z" fill="#FC4C53"/>
</g>
</g>
<path d="M109 234L298.458 279.968C318.122 284.739 338.889 280.505 355.116 268.417L404 232V337C404 363.51 382.51 385 356 385H157C130.49 385 109 363.51 109 337V234Z" fill="#4285F4"/>
<mask id="mask1_2828_260" style="mask-type:alpha" maskUnits="userSpaceOnUse" x="109" y="232" width="295" height="153">
<path d="M109 234L298.458 279.968C318.122 284.739 338.889 280.505 355.116 268.417L404 232V337C404 363.51 382.51 385 356 385H157C130.49 385 109 363.51 109 337V234Z" fill="#4285F4"/>
</mask>
<g mask="url(#mask1_2828_260)">
<g filter="url(#filter4_f_2828_260)">
<path d="M403.999 232C308.132 265.064 262.298 297.181 198.778 385V514H542V280C542 253.49 520.51 232 494 232H403.999Z" fill="#2975F3"/>
</g>
</g>
</g>
<defs>
<filter id="filter0_i_2828_260" x="0" y="0" width="512" height="512" filterUnits="userSpaceOnUse" color-interpolation-filters="sRGB">
<feFlood flood-opacity="0" result="BackgroundImageFix"/>
<feBlend mode="normal" in="SourceGraphic" in2="BackgroundImageFix" result="shape"/>
<feColorMatrix in="SourceAlpha" type="matrix" values="0 0 0 0 0 0 0 0 0 0 0 0 0 0 0 0 0 0 127 0" result="hardAlpha"/>
<feOffset/>
<feGaussianBlur stdDeviation="64"/>
<feComposite in2="hardAlpha" operator="arithmetic" k2="-1" k3="1"/>
<feColorMatrix type="matrix" values="0 0 0 0 1 0 0 0 0 1 0 0 0 0 1 0 0 0 1 0"/>
<feBlend mode="normal" in2="shape" result="effect1_innerShadow_2828_260"/>
</filter>
<filter id="filter1_f_2828_260" x="-140.178" y="-46.5781" width="793.355" height="545.156" filterUnits="userSpaceOnUse" color-interpolation-filters="sRGB">
<feFlood flood-opacity="0" result="BackgroundImageFix"/>
<feBlend mode="normal" in="SourceGraphic" in2="BackgroundImageFix" result="shape"/>
<feGaussianBlur stdDeviation="32" result="effect1_foregroundBlur_2828_260"/>
</filter>
<filter id="filter2_f_2828_260" x="-126.632" y="-47" width="784.425" height="544.805" filterUnits="userSpaceOnUse" color-interpolation-filters="sRGB">
<feFlood flood-opacity="0" result="BackgroundImageFix"/>
<feBlend mode="normal" in="SourceGraphic" in2="BackgroundImageFix" result="shape"/>
<feGaussianBlur stdDeviation="32" result="effect1_foregroundBlur_2828_260"/>
</filter>
<filter id="filter3_f_2828_260" x="-77.5" y="18.5" width="754.192" height="485.578" filterUnits="userSpaceOnUse" color-interpolation-filters="sRGB">
<feFlood flood-opacity="0" result="BackgroundImageFix"/>
<feBlend mode="normal" in="SourceGraphic" in2="BackgroundImageFix" result="shape"/>
<feGaussianBlur stdDeviation="32" result="effect1_foregroundBlur_2828_260"/>
</filter>
<filter id="filter4_f_2828_260" x="134.778" y="168" width="471.222" height="410" filterUnits="userSpaceOnUse" color-interpolation-filters="sRGB">
<feFlood flood-opacity="0" result="BackgroundImageFix"/>
<feBlend mode="normal" in="SourceGraphic" in2="BackgroundImageFix" result="shape"/>
<feGaussianBlur stdDeviation="32" result="effect1_foregroundBlur_2828_260"/>
</filter>
</defs>
</svg>
