<svg width="301" height="300" viewBox="0 0 301 300" fill="none" xmlns="http://www.w3.org/2000/svg">
<rect x="7.01562" y="187.023" width="200" height="100" rx="16" transform="rotate(-15 7.01562 187.023)" fill="white"/>
<path d="M255.455 16.9319C263.991 14.6449 272.764 19.7109 275.051 28.2463L292.651 93.9289C294.938 102.464 289.873 111.238 281.337 113.525L215.904 131.057C207.146 121.129 193.222 116.423 179.568 120.082L98.429 141.822L81.8655 80.01C79.5784 71.4745 84.6445 62.7014 93.18 60.4143L255.455 16.9319Z" fill="white"/>
<mask id="mask0_2788_52" style="mask-type:alpha" maskUnits="userSpaceOnUse" x="81" y="16" width="213" height="126">
<path d="M255.455 16.9319C263.991 14.6451 272.764 19.7101 275.051 28.2453L292.651 93.9289C294.937 102.464 289.872 111.237 281.337 113.525L215.904 131.057C207.146 121.129 193.222 116.424 179.568 120.082L98.428 141.822L81.8655 80.009C79.5787 71.4738 84.6438 62.7005 93.179 60.4133L255.455 16.9319ZM185.151 139.297C185.148 139.298 185.146 139.299 185.144 139.299L184.744 139.401L185.144 139.298C185.153 139.296 185.163 139.294 185.172 139.291L185.151 139.297Z" fill="white"/>
</mask>
<g mask="url(#mask0_2788_52)">
<g filter="url(#filter0_f_2788_52)">
<ellipse cx="154.56" cy="129.122" rx="93" ry="56.5" transform="rotate(7.47726 154.56 129.122)" fill="#F583FF"/>
</g>
<g filter="url(#filter1_f_2788_52)">
<ellipse cx="244.223" cy="22.6657" rx="108.192" ry="99.032" transform="rotate(46.9648 244.223 22.6657)" fill="#312AFF" fill-opacity="0.5"/>
</g>
</g>
<mask id="mask1_2788_52" style="mask-type:alpha" maskUnits="userSpaceOnUse" x="10" y="138" width="213" height="143">
<rect x="7.01562" y="187.023" width="200" height="100" rx="16" transform="rotate(-15 7.01562 187.023)" fill="white"/>
</mask>
<g mask="url(#mask1_2788_52)">
<g filter="url(#filter2_f_2788_52)">
<ellipse cx="138.2" cy="196.048" rx="73.0852" ry="64.8435" transform="rotate(31.7107 138.2 196.048)" fill="#89FFE4"/>
</g>
<g filter="url(#filter3_f_2788_52)">
<ellipse cx="96.0713" cy="268.3" rx="114.069" ry="91.2425" transform="rotate(2.58772 96.0713 268.3)" fill="#89C0FF"/>
</g>
</g>
<rect x="7.628" y="187.377" width="199" height="99" rx="15.5" transform="rotate(-15 7.628 187.377)" stroke="white" stroke-opacity="0.25"/>
<mask id="path-10-inside-1_2788_52" fill="white">
<path d="M255.455 16.9316C263.99 14.6449 272.764 19.7099 275.051 28.2451L292.65 93.9287C294.937 102.464 289.872 111.237 281.337 113.524L215.903 131.057C207.145 121.129 193.222 116.423 179.567 120.082L98.4277 141.822L81.8652 80.0088C79.5784 71.4735 84.6435 62.7003 93.1787 60.4131L255.455 16.9316ZM185.15 139.297C185.148 139.297 185.146 139.298 185.144 139.299L184.744 139.4L185.144 139.298C185.153 139.296 185.162 139.293 185.172 139.291L185.15 139.297Z"/>
</mask>
<path d="M255.455 16.9316L255.196 15.9657L255.196 15.9657L255.455 16.9316ZM275.051 28.2451L276.017 27.9863L276.017 27.9863L275.051 28.2451ZM292.65 93.9287L293.616 93.6699L293.616 93.6699L292.65 93.9287ZM281.337 113.524L281.596 114.49L281.596 114.49L281.337 113.524ZM215.903 131.057L215.153 131.718L215.563 132.183L216.162 132.023L215.903 131.057ZM179.567 120.082L179.826 121.048L179.826 121.048L179.567 120.082ZM98.4277 141.822L97.4618 142.081L97.7206 143.047L98.6865 142.788L98.4277 141.822ZM81.8652 80.0088L80.8993 80.2676L80.8993 80.2676L81.8652 80.0088ZM93.1787 60.4131L92.9199 59.4472L92.9199 59.4472L93.1787 60.4131ZM185.15 139.297L185.384 140.269L185.399 140.266L185.414 140.262L185.15 139.297ZM185.144 139.299L184.909 138.327L184.897 138.33L185.144 139.299ZM184.744 139.4L184.495 138.432L184.991 140.37L184.744 139.4ZM185.144 139.298L184.909 138.326L184.902 138.327L184.895 138.329L185.144 139.298ZM185.172 139.291L185.435 140.256L184.94 138.318L185.172 139.291ZM255.455 16.9316L255.714 17.8976C263.716 15.7537 271.941 20.5022 274.085 28.5039L275.051 28.2451L276.017 27.9863C273.587 18.9175 264.265 13.536 255.196 15.9657L255.455 16.9316ZM275.051 28.2451L274.085 28.5039L291.684 94.1875L292.65 93.9287L293.616 93.6699L276.017 27.9863L275.051 28.2451ZM292.65 93.9287L291.684 94.1875C293.828 102.189 289.08 110.414 281.078 112.558L281.337 113.524L281.596 114.49C290.664 112.06 296.046 102.739 293.616 93.6699L292.65 93.9287ZM281.337 113.524L281.078 112.558L215.645 130.091L215.903 131.057L216.162 132.023L281.596 114.49L281.337 113.524ZM215.903 131.057L216.653 130.395C207.654 120.194 193.344 115.355 179.309 119.116L179.567 120.082L179.826 121.048C193.1 117.491 206.637 122.064 215.153 131.718L215.903 131.057ZM179.567 120.082L179.309 119.116L98.1689 140.856L98.4277 141.822L98.6865 142.788L179.826 121.048L179.567 120.082ZM98.4277 141.822L99.3937 141.563L82.8312 79.75L81.8652 80.0088L80.8993 80.2676L97.4618 142.081L98.4277 141.822ZM81.8652 80.0088L82.8312 79.75C80.6873 71.7482 85.4358 63.5232 93.4375 61.379L93.1787 60.4131L92.9199 59.4472C83.8512 61.8773 78.4696 71.1989 80.8993 80.2676L81.8652 80.0088ZM93.1787 60.4131L93.4375 61.379L255.714 17.8976L255.455 16.9316L255.196 15.9657L92.9199 59.4472L93.1787 60.4131ZM185.15 139.297L184.917 138.325C184.896 138.33 184.879 138.334 184.869 138.337C184.864 138.339 184.86 138.34 184.857 138.341C184.855 138.341 184.854 138.342 184.854 138.342C184.853 138.342 184.852 138.342 184.852 138.342C184.852 138.342 184.853 138.342 184.855 138.341C184.857 138.341 184.861 138.34 184.865 138.338C184.874 138.336 184.89 138.331 184.909 138.327L185.144 139.299L185.378 140.271C185.398 140.266 185.415 140.261 185.425 140.258C185.43 140.257 185.435 140.256 185.437 140.255C185.439 140.254 185.44 140.254 185.44 140.254C185.441 140.254 185.442 140.253 185.442 140.253C185.442 140.253 185.441 140.254 185.439 140.254C185.437 140.255 185.433 140.256 185.428 140.257C185.419 140.26 185.404 140.264 185.384 140.269L185.15 139.297ZM185.144 139.299L184.897 138.33L184.498 138.431L184.744 139.4L184.991 140.37L185.39 140.268L185.144 139.299ZM184.744 139.4L184.993 140.369L185.392 140.266L185.144 139.298L184.895 138.329L184.495 138.432L184.744 139.4ZM185.144 139.298L185.378 140.27C185.392 140.267 185.395 140.266 185.404 140.264L185.172 139.291L184.94 138.318C184.93 138.321 184.914 138.325 184.909 138.326L185.144 139.298ZM185.172 139.291L184.909 138.326L184.887 138.332L185.15 139.297L185.414 140.262L185.435 140.256L185.172 139.291Z" fill="white" fill-opacity="0.25" mask="url(#path-10-inside-1_2788_52)"/>
<defs>
<filter id="filter0_f_2788_52" x="-1.94531" y="7.79688" width="313.012" height="242.648" filterUnits="userSpaceOnUse" color-interpolation-filters="sRGB">
<feFlood flood-opacity="0" result="BackgroundImageFix"/>
<feBlend mode="normal" in="SourceGraphic" in2="BackgroundImageFix" result="shape"/>
<feGaussianBlur stdDeviation="32" result="effect1_foregroundBlur_2788_52"/>
</filter>
<filter id="filter1_f_2788_52" x="12.8242" y="-209.359" width="462.797" height="464.055" filterUnits="userSpaceOnUse" color-interpolation-filters="sRGB">
<feFlood flood-opacity="0" result="BackgroundImageFix"/>
<feBlend mode="normal" in="SourceGraphic" in2="BackgroundImageFix" result="shape"/>
<feGaussianBlur stdDeviation="64" result="effect1_foregroundBlur_2788_52"/>
</filter>
<filter id="filter2_f_2788_52" x="3.28125" y="64.8203" width="269.836" height="262.453" filterUnits="userSpaceOnUse" color-interpolation-filters="sRGB">
<feFlood flood-opacity="0" result="BackgroundImageFix"/>
<feBlend mode="normal" in="SourceGraphic" in2="BackgroundImageFix" result="shape"/>
<feGaussianBlur stdDeviation="32" result="effect1_foregroundBlur_2788_52"/>
</filter>
<filter id="filter3_f_2788_52" x="-145.957" y="49" width="484.059" height="438.594" filterUnits="userSpaceOnUse" color-interpolation-filters="sRGB">
<feFlood flood-opacity="0" result="BackgroundImageFix"/>
<feBlend mode="normal" in="SourceGraphic" in2="BackgroundImageFix" result="shape"/>
<feGaussianBlur stdDeviation="64" result="effect1_foregroundBlur_2788_52"/>
</filter>
</defs>
</svg>
